<svg xmlns="http://www.w3.org/2000/svg" xmlns:xlink="http://www.w3.org/1999/xlink" width="148" zoomAndPan="magnify" viewBox="0 0 110.88 37.5" height="50" preserveAspectRatio="xMidYMid meet" version="1.0"><defs><filter x="0%" y="0%" width="100%" height="100%" id="9ee95fb6ee"><feColorMatrix values="0 0 0 0 1 0 0 0 0 1 0 0 0 0 1 0 0 0 1 0" color-interpolation-filters="sRGB"/></filter><g/><clipPath id="93053ad98d"><path d="M 0.671875 23.144531 L 3 23.144531 L 3 28.324219 L 0.671875 28.324219 Z M 0.671875 23.144531 " clip-rule="nonzero"/></clipPath><clipPath id="5ddec3288c"><path d="M 2 23.144531 L 27 23.144531 L 27 28.324219 L 2 28.324219 Z M 2 23.144531 " clip-rule="nonzero"/></clipPath><clipPath id="3b1f87f2a8"><path d="M 26 23.144531 L 28.425781 23.144531 L 28.425781 28.324219 L 26 28.324219 Z M 26 23.144531 " clip-rule="nonzero"/></clipPath><clipPath id="5ca8764032"><path d="M 0.671875 6 L 29 6 L 29 32 L 0.671875 32 Z M 0.671875 6 " clip-rule="nonzero"/></clipPath><mask id="21522b5a5f"><g filter="url(#9ee95fb6ee)"><rect x="-11.088" width="133.056" fill="#000000" y="-3.75" height="45" fill-opacity="0.6"/></g></mask><clipPath id="0c44eaa290"><path d="M 0.671875 10.722656 L 3 10.722656 L 3 15.902344 L 0.671875 15.902344 Z M 0.671875 10.722656 " clip-rule="nonzero"/></clipPath><clipPath id="98f0222863"><path d="M 2 10.722656 L 27 10.722656 L 27 15.902344 L 2 15.902344 Z M 2 10.722656 " clip-rule="nonzero"/></clipPath><clipPath id="48ca160291"><path d="M 26 10.722656 L 28.425781 10.722656 L 28.425781 15.902344 L 26 15.902344 Z M 26 10.722656 " clip-rule="nonzero"/></clipPath><clipPath id="b40576f640"><rect x="0" width="29" y="0" height="26"/></clipPath><clipPath id="f8ed2d1e9e"><path d="M 0.671875 0 L 29 0 L 29 25 L 0.671875 25 Z M 0.671875 0 " clip-rule="nonzero"/></clipPath><mask id="94b985440c"><g filter="url(#9ee95fb6ee)"><rect x="-11.088" width="133.056" fill="#000000" y="-3.75" height="45" fill-opacity="0.35"/></g></mask><clipPath id="242fdcf795"><path d="M 0.671875 9.679688 L 3 9.679688 L 3 14.859375 L 0.671875 14.859375 Z M 0.671875 9.679688 " clip-rule="nonzero"/></clipPath><clipPath id="0bcb3e72b5"><path d="M 2 9.679688 L 27 9.679688 L 27 14.859375 L 2 14.859375 Z M 2 9.679688 " clip-rule="nonzero"/></clipPath><clipPath id="ea0bc28311"><path d="M 26 9.679688 L 28.425781 9.679688 L 28.425781 14.859375 L 26 14.859375 Z M 26 9.679688 " clip-rule="nonzero"/></clipPath><clipPath id="d3936637fb"><rect x="0" width="29" y="0" height="25"/></clipPath><clipPath id="aaf25ec028"><path d="M 0.671875 0 L 29 0 L 29 18 L 0.671875 18 Z M 0.671875 0 " clip-rule="nonzero"/></clipPath><mask id="960220821b"><g filter="url(#9ee95fb6ee)"><rect x="-11.088" width="133.056" fill="#000000" y="-3.75" height="45" fill-opacity="0.15"/></g></mask><clipPath id="74b7daa6cc"><path d="M 0.984375 3.027344 L 3 3.027344 L 3 8.207031 L 0.984375 8.207031 Z M 0.984375 3.027344 " clip-rule="nonzero"/></clipPath><clipPath id="809e2abd5d"><path d="M 2 3.027344 L 27 3.027344 L 27 8.207031 L 2 8.207031 Z M 2 3.027344 " clip-rule="nonzero"/></clipPath><clipPath id="583faf2dd2"><path d="M 26 3.027344 L 28.367188 3.027344 L 28.367188 8.207031 L 26 8.207031 Z M 26 3.027344 " clip-rule="nonzero"/></clipPath><clipPath id="054376dcec"><rect x="0" width="29" y="0" height="18"/></clipPath></defs><g clip-path="url(#93053ad98d)"><path fill="#f3603f" d="M 2.390625 37.796875 L 0.671875 37.796875 L 0.671875 13.484375 L 2.390625 13.484375 Z M 2.390625 37.796875 " fill-opacity="1" fill-rule="nonzero"/></g><g clip-path="url(#5ddec3288c)"><path fill="#f3603f" d="M 26.703125 37.796875 L 2.390625 37.796875 L 2.390625 13.484375 L 26.703125 13.484375 Z M 26.703125 37.796875 " fill-opacity="1" fill-rule="nonzero"/></g><g clip-path="url(#3b1f87f2a8)"><path fill="#f3603f" d="M 28.425781 37.796875 L 26.703125 37.796875 L 26.703125 13.484375 L 28.425781 13.484375 Z M 28.425781 37.796875 " fill-opacity="1" fill-rule="nonzero"/></g><g clip-path="url(#5ca8764032)"><g mask="url(#21522b5a5f)"><g transform="matrix(1, 0, 0, 1, 0.000000000000000111, 6)"><g clip-path="url(#b40576f640)"><g clip-path="url(#0c44eaa290)"><path fill="#f3603f" d="M 2.390625 25.375 L 0.671875 25.375 L 0.671875 1.0625 L 2.390625 1.0625 Z M 2.390625 25.375 " fill-opacity="1" fill-rule="nonzero"/></g><g clip-path="url(#98f0222863)"><path fill="#f3603f" d="M 26.703125 25.375 L 2.390625 25.375 L 2.390625 1.0625 L 26.703125 1.0625 Z M 26.703125 25.375 " fill-opacity="1" fill-rule="nonzero"/></g><g clip-path="url(#48ca160291)"><path fill="#f3603f" d="M 28.425781 25.375 L 26.703125 25.375 L 26.703125 1.0625 L 28.425781 1.0625 Z M 28.425781 25.375 " fill-opacity="1" fill-rule="nonzero"/></g></g></g></g></g><g clip-path="url(#f8ed2d1e9e)"><g mask="url(#94b985440c)"><g transform="matrix(1, 0, 0, 1, 0.000000000000000111, -0.000000000000001478)"><g clip-path="url(#d3936637fb)"><g clip-path="url(#242fdcf795)"><path fill="#f3603f" d="M 2.390625 24.332031 L 0.671875 24.332031 L 0.671875 0.0195312 L 2.390625 0.0195312 Z M 2.390625 24.332031 " fill-opacity="1" fill-rule="nonzero"/></g><g clip-path="url(#0bcb3e72b5)"><path fill="#f3603f" d="M 26.703125 24.332031 L 2.390625 24.332031 L 2.390625 0.0195312 L 26.703125 0.0195312 Z M 26.703125 24.332031 " fill-opacity="1" fill-rule="nonzero"/></g><g clip-path="url(#ea0bc28311)"><path fill="#f3603f" d="M 28.425781 24.332031 L 26.703125 24.332031 L 26.703125 0.0195312 L 28.425781 0.0195312 Z M 28.425781 24.332031 " fill-opacity="1" fill-rule="nonzero"/></g></g></g></g></g><g clip-path="url(#aaf25ec028)"><g mask="url(#960220821b)"><g transform="matrix(1, 0, 0, 1, 0.000000000000000111, -0.000000000000001478)"><g clip-path="url(#054376dcec)"><g clip-path="url(#74b7daa6cc)"><path fill="#f3603f" d="M 2.386719 17.664062 L 0.671875 17.664062 L 0.671875 -6.597656 L 2.386719 -6.597656 Z M 2.386719 17.664062 " fill-opacity="1" fill-rule="nonzero"/></g><g clip-path="url(#809e2abd5d)"><path fill="#f3603f" d="M 26.648438 17.664062 L 2.386719 17.664062 L 2.386719 -6.597656 L 26.648438 -6.597656 Z M 26.648438 17.664062 " fill-opacity="1" fill-rule="nonzero"/></g><g clip-path="url(#583faf2dd2)"><path fill="#f3603f" d="M 28.367188 17.664062 L 26.648438 17.664062 L 26.648438 -6.597656 L 28.367188 -6.597656 Z M 28.367188 17.664062 " fill-opacity="1" fill-rule="nonzero"/></g></g></g></g></g><g fill="#966155" fill-opacity="1"><g transform="translate(30.759117, 15.149077)"><g><path d="M 3.78125 -8.765625 C 4.707031 -8.765625 5.46875 -8.472656 6.0625 -7.890625 L 5.484375 -7.171875 C 5.046875 -7.628906 4.476562 -7.859375 3.78125 -7.859375 C 3.125 -7.859375 2.625 -7.640625 2.28125 -7.203125 C 2.0625 -6.921875 1.925781 -6.59375 1.875 -6.21875 C 1.832031 -5.84375 1.8125 -5.21875 1.8125 -4.34375 C 1.8125 -3.476562 1.832031 -2.859375 1.875 -2.484375 C 1.925781 -2.109375 2.054688 -1.78125 2.265625 -1.5 C 2.609375 -1.050781 3.113281 -0.828125 3.78125 -0.828125 C 4.539062 -0.828125 5.140625 -1.085938 5.578125 -1.609375 L 6.25 -0.953125 C 5.96875 -0.648438 5.609375 -0.398438 5.171875 -0.203125 C 4.742188 -0.015625 4.28125 0.078125 3.78125 0.078125 C 2.78125 0.078125 2.015625 -0.269531 1.484375 -0.96875 C 1.191406 -1.351562 1.007812 -1.769531 0.9375 -2.21875 C 0.875 -2.664062 0.84375 -3.375 0.84375 -4.34375 C 0.84375 -5.007812 0.851562 -5.488281 0.875 -5.78125 C 0.894531 -6.082031 0.953125 -6.414062 1.046875 -6.78125 C 1.140625 -7.15625 1.289062 -7.472656 1.5 -7.734375 C 2.03125 -8.421875 2.789062 -8.765625 3.78125 -8.765625 Z M 3.78125 -8.765625 "/></g></g></g><g fill="#966155" fill-opacity="1"><g transform="translate(37.724199, 15.149077)"><g><path d="M 1.8125 -4.34375 C 1.8125 -3.789062 1.816406 -3.390625 1.828125 -3.140625 C 1.835938 -2.898438 1.867188 -2.640625 1.921875 -2.359375 C 1.972656 -2.078125 2.050781 -1.847656 2.15625 -1.671875 C 2.488281 -1.109375 3.039062 -0.828125 3.8125 -0.828125 C 4.582031 -0.828125 5.132812 -1.109375 5.46875 -1.671875 C 5.625 -1.921875 5.71875 -2.226562 5.75 -2.59375 C 5.789062 -2.96875 5.8125 -3.550781 5.8125 -4.34375 C 5.8125 -4.894531 5.804688 -5.289062 5.796875 -5.53125 C 5.785156 -5.78125 5.753906 -6.046875 5.703125 -6.328125 C 5.648438 -6.609375 5.570312 -6.835938 5.46875 -7.015625 C 5.132812 -7.578125 4.582031 -7.859375 3.8125 -7.859375 C 3.039062 -7.859375 2.488281 -7.578125 2.15625 -7.015625 C 2 -6.765625 1.898438 -6.453125 1.859375 -6.078125 C 1.828125 -5.710938 1.8125 -5.132812 1.8125 -4.34375 Z M 0.84375 -4.34375 C 0.84375 -4.976562 0.847656 -5.429688 0.859375 -5.703125 C 0.878906 -5.984375 0.921875 -6.285156 0.984375 -6.609375 C 1.054688 -6.941406 1.164062 -7.226562 1.3125 -7.46875 C 1.5625 -7.875 1.90625 -8.191406 2.34375 -8.421875 C 2.78125 -8.648438 3.269531 -8.765625 3.8125 -8.765625 C 4.351562 -8.765625 4.84375 -8.648438 5.28125 -8.421875 C 5.71875 -8.191406 6.054688 -7.875 6.296875 -7.46875 C 6.515625 -7.125 6.644531 -6.742188 6.6875 -6.328125 C 6.738281 -5.910156 6.765625 -5.25 6.765625 -4.34375 C 6.765625 -3.707031 6.757812 -3.25 6.75 -2.96875 C 6.738281 -2.695312 6.695312 -2.394531 6.625 -2.0625 C 6.5625 -1.738281 6.453125 -1.457031 6.296875 -1.21875 C 6.054688 -0.8125 5.71875 -0.492188 5.28125 -0.265625 C 4.84375 -0.0351562 4.351562 0.078125 3.8125 0.078125 C 3.269531 0.078125 2.78125 -0.0351562 2.34375 -0.265625 C 1.90625 -0.492188 1.5625 -0.8125 1.3125 -1.21875 C 1.09375 -1.5625 0.957031 -1.941406 0.90625 -2.359375 C 0.863281 -2.773438 0.84375 -3.4375 0.84375 -4.34375 Z M 0.84375 -4.34375 "/></g></g></g><g fill="#966155" fill-opacity="1"><g transform="translate(45.341442, 15.149077)"><g><path d="M 0.984375 -8.6875 L 1.828125 -8.6875 L 5.75 -1.921875 L 5.75 -8.6875 L 6.71875 -8.6875 L 6.71875 0 L 5.875 0 L 1.9375 -6.765625 L 1.9375 0 L 0.984375 0 Z M 0.984375 -8.6875 "/></g></g></g><g fill="#966155" fill-opacity="1"><g transform="translate(53.036943, 15.149077)"><g><path d="M 3.21875 -8.765625 C 4.132812 -8.765625 4.921875 -8.519531 5.578125 -8.03125 L 5.078125 -7.25 C 4.578125 -7.65625 3.957031 -7.859375 3.21875 -7.859375 C 2.675781 -7.859375 2.269531 -7.726562 2 -7.46875 C 1.738281 -7.207031 1.609375 -6.90625 1.609375 -6.5625 C 1.609375 -6.15625 1.78125 -5.8125 2.125 -5.53125 C 2.332031 -5.351562 2.75 -5.171875 3.375 -4.984375 C 4.195312 -4.742188 4.785156 -4.46875 5.140625 -4.15625 C 5.710938 -3.664062 6 -3.0625 6 -2.34375 C 6 -1.695312 5.753906 -1.128906 5.265625 -0.640625 C 4.785156 -0.160156 4.101562 0.078125 3.21875 0.078125 C 2.238281 0.078125 1.375 -0.21875 0.625 -0.8125 L 1.171875 -1.546875 C 1.753906 -1.066406 2.4375 -0.828125 3.21875 -0.828125 C 3.832031 -0.828125 4.285156 -0.976562 4.578125 -1.28125 C 4.878906 -1.59375 5.03125 -1.945312 5.03125 -2.34375 C 5.03125 -2.8125 4.84375 -3.203125 4.46875 -3.515625 C 4.238281 -3.703125 3.738281 -3.914062 2.96875 -4.15625 C 2.300781 -4.351562 1.796875 -4.59375 1.453125 -4.875 C 1.210938 -5.070312 1.015625 -5.316406 0.859375 -5.609375 C 0.710938 -5.898438 0.640625 -6.207031 0.640625 -6.53125 C 0.640625 -7.164062 0.867188 -7.695312 1.328125 -8.125 C 1.796875 -8.550781 2.425781 -8.765625 3.21875 -8.765625 Z M 3.21875 -8.765625 "/></g></g></g><g fill="#966155" fill-opacity="1"><g transform="translate(59.688986, 15.149077)"><g><path d="M 0.515625 -8.6875 L 6.390625 -8.6875 L 6.390625 -7.78125 L 3.9375 -7.78125 L 3.9375 0 L 2.96875 0 L 2.96875 -7.78125 L 0.515625 -7.78125 Z M 0.515625 -8.6875 "/></g></g></g><g fill="#966155" fill-opacity="1"><g transform="translate(66.601893, 15.149077)"><g><path d="M 1.9375 -7.78125 L 1.9375 -4.25 L 2.71875 -4.25 C 3.125 -4.25 3.421875 -4.253906 3.609375 -4.265625 C 3.796875 -4.285156 4 -4.328125 4.21875 -4.390625 C 4.4375 -4.453125 4.625 -4.554688 4.78125 -4.703125 C 5.125 -5.015625 5.296875 -5.445312 5.296875 -6 C 5.296875 -6.5625 5.125 -7 4.78125 -7.3125 C 4.5625 -7.519531 4.304688 -7.648438 4.015625 -7.703125 C 3.734375 -7.753906 3.300781 -7.78125 2.71875 -7.78125 Z M 0.984375 -8.6875 L 2.71875 -8.6875 C 3.164062 -8.6875 3.507812 -8.675781 3.75 -8.65625 C 3.988281 -8.644531 4.269531 -8.582031 4.59375 -8.46875 C 4.925781 -8.363281 5.21875 -8.195312 5.46875 -7.96875 C 6 -7.46875 6.265625 -6.816406 6.265625 -6.015625 C 6.265625 -5.460938 6.132812 -4.976562 5.875 -4.5625 C 5.613281 -4.144531 5.273438 -3.835938 4.859375 -3.640625 L 6.390625 0 L 5.34375 0 L 3.9375 -3.375 C 3.75 -3.351562 3.34375 -3.34375 2.71875 -3.34375 L 1.9375 -3.34375 L 1.9375 0.015625 L 0.984375 0.015625 Z M 0.984375 -8.6875 "/></g></g></g><g fill="#966155" fill-opacity="1"><g transform="translate(73.645233, 15.149077)"><g><path d="M 0.90625 -8.6875 L 1.875 -8.6875 L 1.875 -3.640625 C 1.875 -3.191406 1.878906 -2.859375 1.890625 -2.640625 C 1.898438 -2.429688 1.9375 -2.203125 2 -1.953125 C 2.070312 -1.710938 2.179688 -1.515625 2.328125 -1.359375 C 2.640625 -1.003906 3.066406 -0.828125 3.609375 -0.828125 C 4.160156 -0.828125 4.59375 -1.003906 4.90625 -1.359375 C 5.039062 -1.515625 5.144531 -1.710938 5.21875 -1.953125 C 5.289062 -2.203125 5.328125 -2.429688 5.328125 -2.640625 C 5.335938 -2.859375 5.34375 -3.191406 5.34375 -3.640625 L 5.34375 -8.6875 L 6.3125 -8.6875 L 6.3125 -3.640625 C 6.3125 -3.253906 6.304688 -2.960938 6.296875 -2.765625 C 6.285156 -2.578125 6.257812 -2.34375 6.21875 -2.0625 C 6.1875 -1.789062 6.125 -1.550781 6.03125 -1.34375 C 5.9375 -1.132812 5.804688 -0.9375 5.640625 -0.75 C 5.148438 -0.195312 4.472656 0.078125 3.609375 0.078125 C 2.753906 0.078125 2.082031 -0.195312 1.59375 -0.75 C 1.425781 -0.9375 1.296875 -1.132812 1.203125 -1.34375 C 1.109375 -1.550781 1.039062 -1.789062 1 -2.0625 C 0.957031 -2.34375 0.929688 -2.578125 0.921875 -2.765625 C 0.910156 -2.960938 0.90625 -3.253906 0.90625 -3.640625 Z M 0.90625 -8.6875 "/></g></g></g><g fill="#966155" fill-opacity="1"><g transform="translate(80.871178, 15.149077)"><g><path d="M 3.78125 -8.765625 C 4.707031 -8.765625 5.46875 -8.472656 6.0625 -7.890625 L 5.484375 -7.171875 C 5.046875 -7.628906 4.476562 -7.859375 3.78125 -7.859375 C 3.125 -7.859375 2.625 -7.640625 2.28125 -7.203125 C 2.0625 -6.921875 1.925781 -6.59375 1.875 -6.21875 C 1.832031 -5.84375 1.8125 -5.21875 1.8125 -4.34375 C 1.8125 -3.476562 1.832031 -2.859375 1.875 -2.484375 C 1.925781 -2.109375 2.054688 -1.78125 2.265625 -1.5 C 2.609375 -1.050781 3.113281 -0.828125 3.78125 -0.828125 C 4.539062 -0.828125 5.140625 -1.085938 5.578125 -1.609375 L 6.25 -0.953125 C 5.96875 -0.648438 5.609375 -0.398438 5.171875 -0.203125 C 4.742188 -0.015625 4.28125 0.078125 3.78125 0.078125 C 2.78125 0.078125 2.015625 -0.269531 1.484375 -0.96875 C 1.191406 -1.351562 1.007812 -1.769531 0.9375 -2.21875 C 0.875 -2.664062 0.84375 -3.375 0.84375 -4.34375 C 0.84375 -5.007812 0.851562 -5.488281 0.875 -5.78125 C 0.894531 -6.082031 0.953125 -6.414062 1.046875 -6.78125 C 1.140625 -7.15625 1.289062 -7.472656 1.5 -7.734375 C 2.03125 -8.421875 2.789062 -8.765625 3.78125 -8.765625 Z M 3.78125 -8.765625 "/></g></g></g><g fill="#966155" fill-opacity="1"><g transform="translate(87.83626, 15.149077)"><g><path d="M 0.515625 -8.6875 L 6.390625 -8.6875 L 6.390625 -7.78125 L 3.9375 -7.78125 L 3.9375 0 L 2.96875 0 L 2.96875 -7.78125 L 0.515625 -7.78125 Z M 0.515625 -8.6875 "/></g></g></g><g fill="#966155" fill-opacity="1"><g transform="translate(30.759117, 25.250167)"><g><path d="M 0.984375 -8.6875 L 2.53125 -8.6875 C 2.976562 -8.6875 3.320312 -8.675781 3.5625 -8.65625 C 3.800781 -8.644531 4.085938 -8.582031 4.421875 -8.46875 C 4.765625 -8.363281 5.066406 -8.195312 5.328125 -7.96875 C 5.910156 -7.445312 6.203125 -6.75 6.203125 -5.875 C 6.203125 -5.007812 5.910156 -4.316406 5.328125 -3.796875 C 5.066406 -3.566406 4.765625 -3.394531 4.421875 -3.28125 C 4.085938 -3.175781 3.800781 -3.113281 3.5625 -3.09375 C 3.320312 -3.082031 2.976562 -3.078125 2.53125 -3.078125 L 1.9375 -3.078125 L 1.9375 0 L 0.984375 0 Z M 1.9375 -7.78125 L 1.9375 -4 L 2.53125 -4 C 2.9375 -4 3.234375 -4 3.421875 -4 C 3.609375 -4.007812 3.816406 -4.050781 4.046875 -4.125 C 4.273438 -4.195312 4.472656 -4.304688 4.640625 -4.453125 C 5.035156 -4.796875 5.234375 -5.269531 5.234375 -5.875 C 5.234375 -6.488281 5.035156 -6.96875 4.640625 -7.3125 C 4.421875 -7.519531 4.160156 -7.648438 3.859375 -7.703125 C 3.566406 -7.753906 3.125 -7.78125 2.53125 -7.78125 Z M 1.9375 -7.78125 "/></g></g></g><g fill="#966155" fill-opacity="1"><g transform="translate(37.60681, 25.250167)"><g><path d="M 1.9375 -7.78125 L 1.9375 -4.25 L 2.71875 -4.25 C 3.125 -4.25 3.421875 -4.253906 3.609375 -4.265625 C 3.796875 -4.285156 4 -4.328125 4.21875 -4.390625 C 4.4375 -4.453125 4.625 -4.554688 4.78125 -4.703125 C 5.125 -5.015625 5.296875 -5.445312 5.296875 -6 C 5.296875 -6.5625 5.125 -7 4.78125 -7.3125 C 4.5625 -7.519531 4.304688 -7.648438 4.015625 -7.703125 C 3.734375 -7.753906 3.300781 -7.78125 2.71875 -7.78125 Z M 0.984375 -8.6875 L 2.71875 -8.6875 C 3.164062 -8.6875 3.507812 -8.675781 3.75 -8.65625 C 3.988281 -8.644531 4.269531 -8.582031 4.59375 -8.46875 C 4.925781 -8.363281 5.21875 -8.195312 5.46875 -7.96875 C 6 -7.46875 6.265625 -6.816406 6.265625 -6.015625 C 6.265625 -5.460938 6.132812 -4.976562 5.875 -4.5625 C 5.613281 -4.144531 5.273438 -3.835938 4.859375 -3.640625 L 6.390625 0 L 5.34375 0 L 3.9375 -3.375 C 3.75 -3.351562 3.34375 -3.34375 2.71875 -3.34375 L 1.9375 -3.34375 L 1.9375 0.015625 L 0.984375 0.015625 Z M 0.984375 -8.6875 "/></g></g></g><g fill="#966155" fill-opacity="1"><g transform="translate(44.650151, 25.250167)"><g><path d="M 1.8125 -4.34375 C 1.8125 -3.789062 1.816406 -3.390625 1.828125 -3.140625 C 1.835938 -2.898438 1.867188 -2.640625 1.921875 -2.359375 C 1.972656 -2.078125 2.050781 -1.847656 2.15625 -1.671875 C 2.488281 -1.109375 3.039062 -0.828125 3.8125 -0.828125 C 4.582031 -0.828125 5.132812 -1.109375 5.46875 -1.671875 C 5.625 -1.921875 5.71875 -2.226562 5.75 -2.59375 C 5.789062 -2.96875 5.8125 -3.550781 5.8125 -4.34375 C 5.8125 -4.894531 5.804688 -5.289062 5.796875 -5.53125 C 5.785156 -5.78125 5.753906 -6.046875 5.703125 -6.328125 C 5.648438 -6.609375 5.570312 -6.835938 5.46875 -7.015625 C 5.132812 -7.578125 4.582031 -7.859375 3.8125 -7.859375 C 3.039062 -7.859375 2.488281 -7.578125 2.15625 -7.015625 C 2 -6.765625 1.898438 -6.453125 1.859375 -6.078125 C 1.828125 -5.710938 1.8125 -5.132812 1.8125 -4.34375 Z M 0.84375 -4.34375 C 0.84375 -4.976562 0.847656 -5.429688 0.859375 -5.703125 C 0.878906 -5.984375 0.921875 -6.285156 0.984375 -6.609375 C 1.054688 -6.941406 1.164062 -7.226562 1.3125 -7.46875 C 1.5625 -7.875 1.90625 -8.191406 2.34375 -8.421875 C 2.78125 -8.648438 3.269531 -8.765625 3.8125 -8.765625 C 4.351562 -8.765625 4.84375 -8.648438 5.28125 -8.421875 C 5.71875 -8.191406 6.054688 -7.875 6.296875 -7.46875 C 6.515625 -7.125 6.644531 -6.742188 6.6875 -6.328125 C 6.738281 -5.910156 6.765625 -5.25 6.765625 -4.34375 C 6.765625 -3.707031 6.757812 -3.25 6.75 -2.96875 C 6.738281 -2.695312 6.695312 -2.394531 6.625 -2.0625 C 6.5625 -1.738281 6.453125 -1.457031 6.296875 -1.21875 C 6.054688 -0.8125 5.71875 -0.492188 5.28125 -0.265625 C 4.84375 -0.0351562 4.351562 0.078125 3.8125 0.078125 C 3.269531 0.078125 2.78125 -0.0351562 2.34375 -0.265625 C 1.90625 -0.492188 1.5625 -0.8125 1.3125 -1.21875 C 1.09375 -1.5625 0.957031 -1.941406 0.90625 -2.359375 C 0.863281 -2.773438 0.84375 -3.4375 0.84375 -4.34375 Z M 0.84375 -4.34375 "/></g></g></g></svg>